HIERARCHY
ROOT Hips
{
    OFFSET   0.000000   0.000000   0.000000
    CHANNELS 6 Xposition Yposition Zposition Zrotation Xrotation Yrotation
    JOINT Chest
    {
        OFFSET   0.000000   8.007230   0.000000
        CHANNELS 3 Zrotation Xrotation Yrotation
        JOINT Chest2
        {
            OFFSET   0.000000  22.077100   0.000000
            CHANNELS 3 Zrotation Xrotation Yrotation
            JOINT Neck
            {
                OFFSET   0.000000  23.255100   0.000000
                CHANNELS 3 Zrotation Xrotation Yrotation
                JOINT Head
                {
                    OFFSET   0.000000  14.370100   1.956600
                    CHANNELS 3 Zrotation Xrotation Yrotation
                    End Site
                    {
                        OFFSET   0.000000  19.566000   0.000000
                    }
                }
            }
            JOINT LeftCollar
            {
                OFFSET   3.911900  19.017000  -0.467063
                CHANNELS 3 Zrotation Xrotation Yrotation
                JOINT LeftShoulder
                {
                    OFFSET  10.383700   0.000000   0.000000
                    CHANNELS 3 Zrotation Xrotation Yrotation
                    JOINT LeftElbow
                    {
                        OFFSET  26.662100   0.001193   0.000980
                        CHANNELS 3 Zrotation Xrotation Yrotation
                        JOINT LeftWrist
                        {
                            OFFSET  28.869000  -0.000059  -0.000082
                            CHANNELS 3 Zrotation Xrotation Yrotation
                            JOINT LeftFinger0
                            {
                                OFFSET   2.044650  -2.323450   3.252850
                                CHANNELS 3 Zrotation Xrotation Yrotation
                                JOINT LeftFinger01
                                {
                                    OFFSET   3.088130   0.000000   0.000000
                                    CHANNELS 3 Zrotation Xrotation Yrotation
                                    JOINT LeftFinger02
                                    {
                                        OFFSET   2.639460   0.000000   0.000000
                                        CHANNELS 3 Zrotation Xrotation Yrotation
                                        End Site
                                        {
                                            OFFSET   2.582190   0.000000   0.000000
                                        }
                                    }
                                }
                            }
                            JOINT LeftFinger1
                            {
                                OFFSET   8.364480   0.000000   3.252850
                                CHANNELS 3 Zrotation Xrotation Yrotation
                                JOINT LeftFinger11
                                {
                                    OFFSET   4.646930   0.000000   0.000000
                                    CHANNELS 3 Zrotation Xrotation Yrotation
                                    JOINT LeftFinger12
                                    {
                                        OFFSET   2.323470   0.000000   0.000000
                                        CHANNELS 3 Zrotation Xrotation Yrotation
                                        End Site
                                        {
                                            OFFSET   2.273050   0.000000   0.000000
                                        }
                                    }
                                }
                            }
                            JOINT LeftFinger2
                            {
                                OFFSET   8.364490   0.000016   1.078090
                                CHANNELS 3 Zrotation Xrotation Yrotation
                                JOINT LeftFinger21
                                {
                                    OFFSET   5.111610   0.000000   0.000000
                                    CHANNELS 3 Zrotation Xrotation Yrotation
                                    JOINT LeftFinger22
                                    {
                                        OFFSET   2.788150   0.000016   0.000000
                                        CHANNELS 3 Zrotation Xrotation Yrotation
                                        End Site
                                        {
                                            OFFSET   2.727660   0.000000   0.000000
                                        }
                                    }
                                }
                            }
                            JOINT LeftFinger3
                            {
                                OFFSET   7.899780   0.000015  -1.078090
                                CHANNELS 3 Zrotation Xrotation Yrotation
                                JOINT LeftFinger31
                                {
                                    OFFSET   4.646930   0.000000   0.000000
                                    CHANNELS 3 Zrotation Xrotation Yrotation
                                    JOINT LeftFinger32
                                    {
                                        OFFSET   2.323470   0.000000   0.000000
                                        CHANNELS 3 Zrotation Xrotation Yrotation
                                        End Site
                                        {
                                            OFFSET   2.273050   0.000000   0.000000
                                        }
                                    }
                                }
                            }
                            JOINT LeftFinger4
                            {
                                OFFSET   7.435090   0.000000  -3.252850
                                CHANNELS 3 Zrotation Xrotation Yrotation
                                JOINT LeftFinger41
                                {
                                    OFFSET   3.717550   0.000000   0.000000
                                    CHANNELS 3 Zrotation Xrotation Yrotation
                                    JOINT LeftFinger42
                                    {
                                        OFFSET   1.858770   0.000000   0.000000
                                        CHANNELS 3 Zrotation Xrotation Yrotation
                                        End Site
                                        {
                                            OFFSET   1.818440   0.000000   0.000000
                                        }
                                    }
                                }
                            }
                        }
                    }
                }
            }
            JOINT RightCollar
            {
                OFFSET  -3.911910  19.017000  -0.467062
                CHANNELS 3 Zrotation Xrotation Yrotation
                JOINT RightShoulder
                {
                    OFFSET -10.383700   0.000014   0.000000
                    CHANNELS 3 Zrotation Xrotation Yrotation
                    JOINT RightElbow
                    {
                        OFFSET -26.662100   0.001225   0.001091
                        CHANNELS 3 Zrotation Xrotation Yrotation
                        JOINT RightWrist
                        {
                            OFFSET -28.869000  -0.000020  -0.000085
                            CHANNELS 3 Zrotation Xrotation Yrotation
                            JOINT RightFinger0
                            {
                                OFFSET  -2.044650  -2.323490   3.252850
                                CHANNELS 3 Zrotation Xrotation Yrotation
                                JOINT RightFinger01
                                {
                                    OFFSET  -3.088130   0.000000   0.000000
                                    CHANNELS 3 Zrotation Xrotation Yrotation
                                    JOINT RightFinger02
                                    {
                                        OFFSET  -2.639460   0.000000   0.000000
                                        CHANNELS 3 Zrotation Xrotation Yrotation
                                        End Site
                                        {
                                            OFFSET  -2.582190   0.000000   0.000000
                                        }
                                    }
                                }
                            }
                            JOINT RightFinger1
                            {
                                OFFSET  -8.364480   0.000000   3.252850
                                CHANNELS 3 Zrotation Xrotation Yrotation
                                JOINT RightFinger11
                                {
                                    OFFSET  -4.646930   0.000000   0.000000
                                    CHANNELS 3 Zrotation Xrotation Yrotation
                                    JOINT RightFinger12
                                    {
                                        OFFSET  -2.323470   0.000000   0.000000
                                        CHANNELS 3 Zrotation Xrotation Yrotation
                                        End Site
                                        {
                                            OFFSET  -2.273050   0.000000   0.000000
                                        }
                                    }
                                }
                            }
                            JOINT RightFinger2
                            {
                                OFFSET  -8.364480   0.000000   1.078090
                                CHANNELS 3 Zrotation Xrotation Yrotation
                                JOINT RightFinger21
                                {
                                    OFFSET  -5.111620   0.000000   0.000000
                                    CHANNELS 3 Zrotation Xrotation Yrotation
                                    JOINT RightFinger22
                                    {
                                        OFFSET  -2.788160   0.000000   0.000000
                                        CHANNELS 3 Zrotation Xrotation Yrotation
                                        End Site
                                        {
                                            OFFSET  -2.727660   0.000000   0.000000
                                        }
                                    }
                                }
                            }
                            JOINT RightFinger3
                            {
                                OFFSET  -7.899780   0.000000  -1.078090
                                CHANNELS 3 Zrotation Xrotation Yrotation
                                JOINT RightFinger31
                                {
                                    OFFSET  -4.646930   0.000000   0.000000
                                    CHANNELS 3 Zrotation Xrotation Yrotation
                                    JOINT RightFinger32
                                    {
                                        OFFSET  -2.323470   0.000000   0.000000
                                        CHANNELS 3 Zrotation Xrotation Yrotation
                                        End Site
                                        {
                                            OFFSET  -2.273050   0.000000   0.000000
                                        }
                                    }
                                }
                            }
                            JOINT RightFinger4
                            {
                                OFFSET  -7.435090   0.000000  -3.252850
                                CHANNELS 3 Zrotation Xrotation Yrotation
                                JOINT RightFinger41
                                {
                                    OFFSET  -3.717550   0.000000   0.000000
                                    CHANNELS 3 Zrotation Xrotation Yrotation
                                    JOINT RightFinger42
                                    {
                                        OFFSET  -1.858760   0.000000   0.000000
                                        CHANNELS 3 Zrotation Xrotation Yrotation
                                        End Site
                                        {
                                            OFFSET  -1.818440   0.000000   0.000000
                                        }
                                    }
                                }
                            }
                        }
                    }
                }
            }
        }
    }
    JOINT LeftHip
    {
        OFFSET   9.783030   0.000000   0.000000
        CHANNELS 3 Zrotation Xrotation Yrotation
        JOINT LeftKnee
        {
            OFFSET   0.000063 -41.789100   0.000608
            CHANNELS 3 Zrotation Xrotation Yrotation
            JOINT LeftAnkle
            {
                OFFSET   0.000048 -41.133200  -0.000184
                CHANNELS 3 Zrotation Xrotation Yrotation
                JOINT LeftToe
                {
                    OFFSET   0.000000  -6.358960  14.674500
                    CHANNELS 3 Zrotation Xrotation Yrotation
                    End Site
                    {
                        OFFSET   0.000000   0.000000   3.913200
                    }
                }
            }
        }
    }
    JOINT RightHip
    {
        OFFSET  -9.783030   0.000000   0.000000
        CHANNELS 3 Zrotation Xrotation Yrotation
        JOINT RightKnee
        {
            OFFSET   0.000071 -41.789100   0.001239
            CHANNELS 3 Zrotation Xrotation Yrotation
            JOINT RightAnkle
            {
                OFFSET   0.000037 -41.133200  -0.000166
                CHANNELS 3 Zrotation Xrotation Yrotation
                JOINT RightToe
                {
                    OFFSET   0.000000  -6.358960  14.674500
                    CHANNELS 3 Zrotation Xrotation Yrotation
                    End Site
                    {
                        OFFSET   0.000000   0.000000   3.913200
                    }
                }
            }
        }
    }
}
MOTION
Frames: 6
Frame Time:   0.016667
  0.030344  89.472500  -0.027133  -2.859520 -16.845500   0.960395   0.357555  10.124700   3.399080   0.095545  20.252500   6.898800   0.139639  -0.536919   0.003303   0.229477  -1.088440   1.361210  -6.900280  -7.430380   1.583210 -70.418900  32.516500  -6.099960  -0.010294  -8.366680 -19.488100  16.953200 -13.158300   5.095860  35.209800  29.437500 -60.189500 -35.569100   0.001308   0.000988 -12.784500   0.000321  -0.001403 -31.883200   4.915210  -7.842450 -26.362200   0.003866  -0.002354 -18.453500   0.005304  -0.001967 -30.124700   1.083660  -1.866780 -45.213600  -0.002530   0.002575 -30.112300  -0.002834   0.002414 -28.753100   0.796805  -1.451330 -40.827400  -0.000898   0.004260 -27.191100  -0.003638   0.002918 -34.425700   0.370386  -0.540439 -51.641200  -0.001677   0.000611 -34.393100  -0.003767  -0.003096  12.669200  -3.487000  16.091700  44.767100  31.208700  32.735300 -28.586200  -8.091160  50.797800  19.201800 -41.658700  20.759400 -45.849100  43.042100  80.050700  30.123300   0.003064  -0.002840  10.061600   0.000280  -0.001236  13.664800   2.452500   9.982700  11.355500   0.006164  -0.002884   7.948850   0.005920  -0.001050  16.435700   1.351120   4.569540  16.489500   0.001201   0.001242  10.982000   0.002257  -0.003450  13.002800  -0.350178  -1.519210  13.007300   0.000871   0.002807   8.662870   0.002016  -0.005246  20.056200  -0.611584  -1.675660  30.097500   0.001562  -0.004754  20.045000   0.001348  -0.002755   3.049210  18.915700   4.334910   0.565662   0.000508   3.677100  -1.087020  -2.934340  -0.212691  -0.000000   0.000000  -0.000000   4.035330  18.741400  -0.386362  -0.532364   3.211990 -11.666000  -0.397096  -5.894690  -1.772460   0.000000   0.000000   0.000000
  0.023432  89.481200  -0.100252  -2.917330 -16.700300   0.712647   0.370410  10.068900   3.363950   0.132336  20.142100   6.822800   0.125645  -0.542649   0.003525   0.206240  -1.100200   1.415660  -6.923760  -7.383830   1.597000 -70.569900  32.173200  -5.835060  -0.117831  -8.319400 -19.361300  16.828200 -13.273900   5.076080  35.201000  29.505100 -60.336800 -35.561600   0.001377   0.001031 -12.780700   0.000356  -0.001440 -31.882300   4.956950  -7.906850 -26.362900   0.003848  -0.002337 -18.454000   0.005350  -0.001932 -30.078900   1.105470  -1.907890 -45.146100  -0.002534   0.002575 -30.067300  -0.002834   0.002382 -28.751500   0.829000  -1.509990 -40.809400  -0.000902   0.004257 -27.179000  -0.003634   0.002959 -34.418300   0.372011  -0.542973 -51.630200  -0.001678   0.000632 -34.385800  -0.003770  -0.003047  12.687700  -3.472950  16.102500  44.723200  31.196900  32.769900 -28.573900  -8.065320  50.878500  19.074800 -41.650100  20.751500 -45.951100  43.084800  80.032100  30.047200   0.003131  -0.003014  10.023600   0.000279  -0.001309  13.727100   2.465940   9.989630  11.407600   0.006668  -0.002596   7.985320   0.006211  -0.000813  16.481400   1.342890   4.535060  16.534500   0.001389   0.001299  11.011900   0.002091  -0.003341  13.122900  -0.377734  -1.624770  13.128000   0.000962   0.002930   8.743240   0.001947  -0.005057  20.071300  -0.626229  -1.717970  30.120700   0.001710  -0.005063  20.060400   0.001415  -0.002606   3.018550  18.749300   4.341910   0.593882   0.042987   3.698680  -1.074050  -2.954220   0.010107  -0.000000   0.000000  -0.000000   3.978270  18.506900  -0.348206  -0.512763   3.258090 -11.513400  -0.407429  -5.845340  -1.693790  -0.000000   0.000000   0.000000
  0.019503  89.490000  -0.174276  -2.971440 -16.529300   0.474058   0.382068   9.999560   3.324580   0.167809  20.004300   6.738290   0.118958  -0.548792   0.003747   0.195523  -1.112850   1.458620  -6.941460  -7.332590   1.613060 -70.715600  31.860900  -5.566850  -0.217249  -8.247650 -19.265500  16.684700 -13.340700   5.034320  35.262200  29.629000 -60.514600 -35.548900   0.001446   0.001072 -12.774400   0.000389  -0.001474 -31.873200   4.993700  -7.968920 -26.363000   0.003827  -0.002320 -18.454100   0.005397  -0.001896 -30.020000   1.126190  -1.948260 -45.058900  -0.002537   0.002574 -30.009200  -0.002834   0.002349 -28.749700   0.862089  -1.570380 -40.762500  -0.000905   0.004254 -27.147800  -0.003630   0.002999 -34.393700   0.377510  -0.551539 -51.593400  -0.001679   0.000653 -34.361200  -0.003772  -0.002998  12.718300  -3.436330  16.115000  44.704500  31.182800  32.770000 -28.564100  -7.981680  51.057400  18.928000 -41.584000  20.724400 -46.098900  43.095600  80.003100  29.991000   0.003194  -0.003190   9.995510   0.000279  -0.001382  13.826300   2.484860   9.992440  11.490200   0.007184  -0.002302   8.043180   0.006505  -0.000583  16.573500   1.334380   4.473590  16.625500   0.001606   0.001331  11.072500   0.001964  -0.003238  13.328300  -0.413991  -1.750580  13.334200   0.001058   0.003040   8.880570   0.001919  -0.004859  20.173300  -0.663889  -1.809350  30.275100   0.001886  -0.005373  20.163200   0.001482  -0.002481   2.984630  18.556100   4.346490   0.624913   0.086934   3.735890  -1.057580  -2.970660   0.212616   0.000000   0.000000   0.000000   3.912230  18.237400  -0.269731  -0.476578   3.317290 -11.371800  -0.420867  -5.797640  -1.650710   0.000000   0.000000  -0.000000
  0.018878  89.498300  -0.245549  -3.027460 -16.341000   0.236196   0.388385   9.918470   3.289990   0.191268  19.842700   6.664340   0.133431  -0.557146   0.003975   0.219604  -1.129810   1.479820  -6.945070  -7.281970   1.635900 -70.846600  31.618100  -5.321650  -0.307625  -8.162480 -19.174100  16.543800 -13.288100   4.982350  35.297700  29.727500 -60.638700 -35.531100   0.001518   0.001127 -12.765500   0.000424  -0.001507 -31.843900   5.024980  -8.027970 -26.343900   0.003810  -0.002301 -18.440700   0.005439  -0.001857 -29.950000   1.147280  -1.990340 -44.955100  -0.002537   0.002576 -29.940100  -0.002833   0.002317 -28.748000   0.894437  -1.629590 -40.683900  -0.000904   0.004255 -27.095400  -0.003632   0.003038 -34.343600   0.388778  -0.569067 -51.518400  -0.001680   0.000675 -34.311300  -0.003771  -0.002950  12.744900  -3.383870  16.125100  44.866600  31.092700  32.581500 -28.586500  -7.812280  51.304400  18.801600 -41.425600  20.673700 -46.215000  43.077300  79.861200  29.941300   0.003253  -0.003370   9.970650   0.000278  -0.001457  13.968000   2.505040   9.995850  11.608000   0.007705  -0.002005   8.125630   0.006808  -0.000361  16.730000   1.334120   4.400170  16.781400   0.001724   0.001339  11.176300   0.001894  -0.003146  13.674200  -0.467895  -1.930810  13.681700   0.001106   0.003139   9.112030   0.001934  -0.004657  20.400700  -0.727841  -1.956010  30.619000   0.001985  -0.005685  20.392200   0.001522  -0.002388   2.946820  18.366100   4.356320   0.659034   0.088720   3.810230  -1.031110  -2.972310   0.374838  -0.000000   0.000000   0.000000   3.847570  17.950300  -0.116544  -0.432488   3.383520 -11.271900  -0.431034  -5.752540  -1.638610   0.000000   0.000000   0.000000
  0.018253  89.505800  -0.310353  -3.088680 -16.146100  -0.003280   0.390350   9.831970   3.259690   0.207333  19.670100   6.599750   0.164484  -0.571812   0.004203   0.270362  -1.159530   1.485500  -6.944170  -7.227840   1.660990 -70.964000  31.416100  -5.110690  -0.385748  -8.059460 -19.074000  16.417000 -13.186800   4.928960  35.335000  29.790400 -60.706800 -35.512800   0.001591   0.001190 -12.756400   0.000459  -0.001540 -31.805300   5.049610  -8.077980 -26.314400   0.003794  -0.002282 -18.420100   0.005479  -0.001817 -29.879300   1.165230  -2.027140 -44.850000  -0.002535   0.002577 -29.870100  -0.002833   0.002285 -28.746400   0.922608  -1.681210 -40.596900  -0.000903   0.004257 -27.037500  -0.003633   0.003077 -34.287600   0.401386  -0.588703 -51.434500  -0.001680   0.000697 -34.255400  -0.003770  -0.002903  12.766900  -3.305920  16.129600  45.145200  30.965500  32.235400 -28.608900  -7.631440  51.584500  18.631900 -41.117300  20.588000 -46.311500  43.042700  79.649300  29.873900   0.003311  -0.003551   9.936960   0.000278  -0.001533  14.196200   2.556810  10.007200  11.798800   0.008240  -0.001706   8.259140   0.007120  -0.000151  17.010500   1.334150   4.353710  17.061300   0.002101   0.001340  11.362800   0.001872  -0.003066  14.185100  -0.518176  -2.045290  14.194400   0.001248   0.003225   9.453490   0.002037  -0.004449  20.750200  -0.795659  -2.099080  31.146700   0.002306  -0.005995  20.743700   0.001650  -0.002345   2.914110  18.179200   4.372080   0.689842   0.088967   3.895440  -1.001060  -2.973950   0.521398  -0.000000   0.000000   0.000000   3.789010  17.663100   0.063738  -0.390527   3.445430 -11.188700  -0.442549  -5.709090  -1.633750  -0.000000   0.000000  -0.000000
  0.008151  89.511600  -0.360661  -3.158990 -15.965500  -0.256278   0.390299   9.751120   3.240450   0.215754  19.508700   6.558460   0.205559  -0.599204   0.004429   0.338024  -1.215150   1.485100  -6.937870  -7.172430   1.681490 -71.067700  31.233900  -4.959370  -0.445419  -7.928770 -18.936900  16.327400 -13.071600   4.887970  35.353800  29.804200 -60.708100 -35.499100   0.001668   0.001279 -12.749600   0.000495  -0.001576 -31.776100   5.064010  -8.109060 -26.292600   0.003780  -0.002263 -18.404500   0.005521  -0.001780 -29.819900   1.175320  -2.049540 -44.761600  -0.002532   0.002574 -29.811200  -0.002835   0.002255 -28.745400   0.940375  -1.713760 -40.524200  -0.000902   0.004259 -26.989100  -0.003631   0.003116 -34.242600   0.411567  -0.604504 -51.367200  -0.001677   0.000721 -34.210600  -0.003772  -0.002855  12.774100  -3.200520  16.123700  45.415700  30.861800  31.869900 -28.590000  -7.544650  51.860600  18.398200 -40.568600  20.486200 -46.505200  43.028300  79.505600  29.720800   0.003365  -0.003733   9.860430   0.000279  -0.001609  14.561500   2.667780  10.143200  12.110500   0.008788  -0.001408   8.477350   0.007443   0.000048  17.490200   1.371950   4.372940  17.543800   0.004523   0.001317  11.684200   0.003521  -0.002999  14.923900  -0.544275  -2.035220  14.935000   0.004351   0.003299   9.946700   0.004042  -0.004235  21.242400  -0.844154  -2.176190  31.887900   0.006873  -0.006298  21.237300   0.006601  -0.002348   2.897330  18.016200   4.408110   0.712168   0.081527   3.970260  -0.971559  -2.982600   0.669267  -0.000000   0.000000   0.000000   3.761600  17.411600   0.237578  -0.363820   3.484050 -11.106800  -0.460148  -5.666330  -1.623380   0.000000   0.000000   0.000000
